<?xml version="1.0" encoding="UTF-8"?>
<svg width="5.9298in" height="5.9298in" version="1.1" viewBox="0 0 427 427" xmlns="http://www.w3.org/2000/svg" xmlns:cc="http://creativecommons.org/ns#" xmlns:dc="http://purl.org/dc/elements/1.1/" xmlns:rdf="http://www.w3.org/1999/02/22-rdf-syntax-ns#">
<path d="m222 19 13.6 32s37.66 83 37.66 83 34.48 68 34.48 68l30.57 59 24 45s13.69 27 13.69 27l-36-16-16-4c14.51 6.29 35.48 21.39 48 31.4 4.36 3.49 15.57 12.05 18.67 15.64 3.4 3.93 11.08 19.35 14.19 24.96 0 0 22.14 42 22.14 42-6.12-1.79-11.45-5.65-17-8.7l-33-17.99c-21.22-11.48-54.11-26.01-77-33.64-12.07-4.03-27.48-8.98-40-10.67l2-22v-10c-0.03-18.4-7.28-43.91-19.3-58-3.37-3.96-8.28-8.8-12.7-11.53-15.26-9.42-31.4-4.11-42.83 8.53-13.54 14.99-20.93 39.98-21.17 60-0.1 9.02 0.18 14.04 1.48 23 0.49 2.4 1.88 7.17 0 9.02-1.38 1.17-14.74 3.9-17.48 4.61l-38 12.42c-19.64 7.34-50.71 21.67-69 31.81l-24 13.14c-5.51 3.15-13.19 8.16-19 10l20.14-38 37.55-68 60.05-112 25.01-49 12.25-25 14 9.66c8.6 5.84 30.5 18.63 40 21.34l-35-30c-2.59-2.58-10.69-10.03-11.65-13-1-3.08 1.56-7.27 2.89-10l9.9-22s27.44-66 27.44-66l10.42-25 9 19z" fill="#ffffff" stroke-width="0"/>
</svg>

